<svg xmlns="http://www.w3.org/2000/svg" width="21.37" height="21.125" viewBox="0 0 21.37 21.125">
  <metadata><?xpacket begin="﻿" id="W5M0MpCehiHzreSzNTczkc9d"?>
<x:xmpmeta xmlns:x="adobe:ns:meta/" x:xmptk="Adobe XMP Core 5.6-c138 79.159824, 2016/09/14-01:09:01        ">
   <rdf:RDF xmlns:rdf="http://www.w3.org/1999/02/22-rdf-syntax-ns#">
      <rdf:Description rdf:about=""/>
   </rdf:RDF>
</x:xmpmeta>
                                                                                                    
                                                                                                    
                                                                                                    
                                                                                                    
                                                                                                    
                                                                                                    
                                                                                                    
                                                                                                    
                                                                                                    
                                                                                                    
                                                                                                    
                                                                                                    
                                                                                                    
                                                                                                    
                                                                                                    
                                                                                                    
                                                                                                    
                                                                                                    
                                                                                                    
                                                                                                    
                           
<?xpacket end="w"?></metadata>
<defs>
    <style>
      .cls-1 {
        fill: none;
        stroke: #acb8be;
        stroke-width: 2px;
        fill-rule: evenodd;
      }
    </style>
  </defs>
  <path class="cls-1" d="M1468.71,107.18a1.7,1.7,0,1,0-1.7,1.695A1.706,1.706,0,0,0,1468.71,107.18Zm12.52-14.049h-13.66l-0.41-2.823a0.659,0.659,0,0,0-.62-0.562h-3.45c-0.37,0-.61.819-0.61,1.193a1.171,1.171,0,0,0,.79,1.04h1.93l1.67,11.075a0.661,0.661,0,0,0,.63.562l10.79-2.387a0.677,0.677,0,0,0,.63-0.561l2.93-6.851a0.69,0.69,0,0,0-.12-0.5A0.73,0.73,0,0,0,1481.23,93.131Zm-2.45,14.042a1.7,1.7,0,1,0-1.7,1.7A1.7,1.7,0,0,0,1478.78,107.173Z" transform="translate(-1461.47 -88.75)"/>
</svg>
