<svg xmlns="http://www.w3.org/2000/svg" width="12" height="8.969" viewBox="0 0 12 8.969">
  <metadata><?xpacket begin="﻿" id="W5M0MpCehiHzreSzNTczkc9d"?>
<x:xmpmeta xmlns:x="adobe:ns:meta/" x:xmptk="Adobe XMP Core 5.6-c138 79.159824, 2016/09/14-01:09:01        ">
   <rdf:RDF xmlns:rdf="http://www.w3.org/1999/02/22-rdf-syntax-ns#">
      <rdf:Description rdf:about=""/>
   </rdf:RDF>
</x:xmpmeta>
                                                                                                    
                                                                                                    
                                                                                                    
                                                                                                    
                                                                                                    
                                                                                                    
                                                                                                    
                                                                                                    
                                                                                                    
                                                                                                    
                                                                                                    
                                                                                                    
                                                                                                    
                                                                                                    
                                                                                                    
                                                                                                    
                                                                                                    
                                                                                                    
                                                                                                    
                                                                                                    
                           
<?xpacket end="w"?></metadata>
<defs>
    <style>
      .cls-1 {
        fill: #92999a;
        fill-rule: evenodd;
      }
    </style>
  </defs>
  <path class="cls-1" d="M397.5,15.658a1.211,1.211,0,0,1-.527.112,0.868,0.868,0,0,1-.527-0.15l-5.434-2.9V19.6a0.355,0.355,0,0,0,.376.376h11.233A0.356,0.356,0,0,0,403,19.6V12.721ZM402.624,11H391.391a0.355,0.355,0,0,0-.376.376v0.253a0.4,0.4,0,0,0,.188.339l5.585,3.012a0.485,0.485,0,0,0,.376,0l5.648-3.012A0.4,0.4,0,0,0,403,11.629V11.377A0.356,0.356,0,0,0,402.624,11Z" transform="translate(-391 -11)"/>
</svg>
