<svg id="In_stock" data-name="In stock" xmlns="http://www.w3.org/2000/svg" width="14.25" height="21.906" viewBox="0 0 14.25 21.906">
  <metadata><?xpacket begin="﻿" id="W5M0MpCehiHzreSzNTczkc9d"?>
<x:xmpmeta xmlns:x="adobe:ns:meta/" x:xmptk="Adobe XMP Core 5.6-c138 79.159824, 2016/09/14-01:09:01        ">
   <rdf:RDF xmlns:rdf="http://www.w3.org/1999/02/22-rdf-syntax-ns#">
      <rdf:Description rdf:about=""/>
   </rdf:RDF>
</x:xmpmeta>
                                                                                                    
                                                                                                    
                                                                                                    
                                                                                                    
                                                                                                    
                                                                                                    
                                                                                                    
                                                                                                    
                                                                                                    
                                                                                                    
                                                                                                    
                                                                                                    
                                                                                                    
                                                                                                    
                                                                                                    
                                                                                                    
                                                                                                    
                                                                                                    
                                                                                                    
                                                                                                    
                           
<?xpacket end="w"?></metadata>
<defs>
    <style>
      .cls-1 {
        fill: #41b18d;
      }

      .cls-1, .cls-2 {
        fill-rule: evenodd;
      }

      .cls-2 {
        fill: #fff;
        stroke: #41b18d;
        stroke-width: 1px;
      }
    </style>
  </defs>
  <path id="Rectangle_23_copy" data-name="Rectangle 23 copy" class="cls-1" d="M978.944,851.487s-0.1-1.166,5.5-1.166,5.535,1.166,5.535,1.166v9.27s1.04,1.212-5.6,1.212-5.443-1.212-5.443-1.212v-9.27Z" transform="translate(-977.5 -850.313)"/>
  <path class="cls-2" d="M977.992,852.858s-0.277-.954,6.485-0.954,6.517,0.954,6.517.954v17.571s0.514,1.3-6.584,1.3-6.418-1.3-6.418-1.3V852.858Z" transform="translate(-977.5 -850.313)"/>
  <path class="cls-2" d="M980.646,857.963a21.181,21.181,0,0,1,4.029-.327,18.062,18.062,0,0,1,4.035.388" transform="translate(-977.5 -850.313)"/>
  <path id="Shape_20_copy" data-name="Shape 20 copy" class="cls-2" d="M981.683,859.877a15.863,15.863,0,0,1,3.012-.244,13.457,13.457,0,0,1,3.017.291" transform="translate(-977.5 -850.313)"/>
  <path id="Shape_20_copy_2" data-name="Shape 20 copy 2" class="cls-2" d="M983.786,865.925a3.251,3.251,0,0,0,1.149.181,3.584,3.584,0,0,0,1.151-.163" transform="translate(-977.5 -850.313)"/>
</svg>
