<svg xmlns="http://www.w3.org/2000/svg" width="19.594" height="19.625" viewBox="0 0 19.594 19.625">
  <metadata><?xpacket begin="﻿" id="W5M0MpCehiHzreSzNTczkc9d"?>
<x:xmpmeta xmlns:x="adobe:ns:meta/" x:xmptk="Adobe XMP Core 5.6-c138 79.159824, 2016/09/14-01:09:01        ">
   <rdf:RDF xmlns:rdf="http://www.w3.org/1999/02/22-rdf-syntax-ns#">
      <rdf:Description rdf:about=""/>
   </rdf:RDF>
</x:xmpmeta>
                                                                                                    
                                                                                                    
                                                                                                    
                                                                                                    
                                                                                                    
                                                                                                    
                                                                                                    
                                                                                                    
                                                                                                    
                                                                                                    
                                                                                                    
                                                                                                    
                                                                                                    
                                                                                                    
                                                                                                    
                                                                                                    
                                                                                                    
                                                                                                    
                                                                                                    
                                                                                                    
                           
<?xpacket end="w"?></metadata>
<defs>
    <style>
      .cls-1 {
        fill: #acb8be;
        fill-rule: evenodd;
      }
    </style>
  </defs>
  <path id="Rectangle_17_copy" data-name="Rectangle 17 copy" class="cls-1" d="M408.15,90.042h-14.7a2.45,2.45,0,0,0-2.45,2.45v14.7a2.45,2.45,0,0,0,2.45,2.449h14.7a2.45,2.45,0,0,0,2.45-2.449v-14.7A2.45,2.45,0,0,0,408.15,90.042Zm-11.125,9.393c0-.039.012-0.076,0.017-0.115,0.013-.095.027-0.19,0.047-0.282,0.009-.041.021-0.081,0.032-0.122,0.022-.089.045-0.176,0.073-0.26,0.013-.041.029-0.079,0.043-0.119,0.031-.084.062-0.166,0.1-0.246,0.006-.014.01-0.028,0.016-0.043h0a3.792,3.792,0,0,1,6.888,0h0c0.007,0.014.011,0.028,0.018,0.043,0.035,0.08.068,0.162,0.1,0.246,0.015,0.04.03,0.078,0.043,0.119,0.029,0.084.051,0.172,0.073,0.26,0.011,0.04.023,0.08,0.032,0.122,0.02,0.093.034,0.188,0.047,0.282,0,0.038.013,0.076,0.018,0.115,0.013,0.133.022,0.269,0.022,0.406a3.8,3.8,0,1,1-7.6,0A3.9,3.9,0,0,1,397.025,99.435Zm11.37,7.022a0.98,0.98,0,0,1-.98.979h-13.23a0.98,0.98,0,0,1-.98-0.979V98.249h1.806a6,6,0,1,0,11.577,0H408.4v8.208Zm0-11.27a0.981,0.981,0,0,1-.98.98h-1.96a0.981,0.981,0,0,1-.98-0.98v-1.96a0.98,0.98,0,0,1,.98-0.98h1.96a0.98,0.98,0,0,1,.98.98v1.96Z" transform="translate(-391 -90.031)"/>
</svg>
