<svg xmlns="http://www.w3.org/2000/svg" width="15.906" height="12.94" viewBox="0 0 15.906 12.94">
  <metadata><?xpacket begin="﻿" id="W5M0MpCehiHzreSzNTczkc9d"?>
<x:xmpmeta xmlns:x="adobe:ns:meta/" x:xmptk="Adobe XMP Core 5.6-c138 79.159824, 2016/09/14-01:09:01        ">
   <rdf:RDF xmlns:rdf="http://www.w3.org/1999/02/22-rdf-syntax-ns#">
      <rdf:Description rdf:about=""/>
   </rdf:RDF>
</x:xmpmeta>
                                                                                                    
                                                                                                    
                                                                                                    
                                                                                                    
                                                                                                    
                                                                                                    
                                                                                                    
                                                                                                    
                                                                                                    
                                                                                                    
                                                                                                    
                                                                                                    
                                                                                                    
                                                                                                    
                                                                                                    
                                                                                                    
                                                                                                    
                                                                                                    
                                                                                                    
                                                                                                    
                           
<?xpacket end="w"?></metadata>
<defs>
    <style>
      .cls-1 {
        fill: #c2ccd0;
        fill-rule: evenodd;
      }
    </style>
  </defs>
  <path class="cls-1" d="M944.8,7487.92l-1.562-1.7a0.557,0.557,0,0,0-.776,0l-1.564,1.7a0.54,0.54,0,0,0,0,.77h1.294a5.344,5.344,0,0,1-9.556,1.67l-1.091.75a6.712,6.712,0,0,0,5.5,2.87,6.706,6.706,0,0,0,6.511-5.29H944.8a0.541,0.541,0,0,0,0-.77h0Zm-11.321-.89a0.54,0.54,0,0,0,0-.77h-1.457a5.339,5.339,0,0,1,9.537-1.62l1.092-.75a6.669,6.669,0,0,0-12,2.37H929.2a0.54,0.54,0,0,0,0,.77l1.638,1.64a0.557,0.557,0,0,0,.776,0l1.865-1.64h0Z" transform="translate(-929.063 -7481.03)"/>
</svg>
