<svg xmlns="http://www.w3.org/2000/svg" width="164.786" height="20.38" viewBox="0 0 164.786 20.38">
  <metadata><?xpacket begin="﻿" id="W5M0MpCehiHzreSzNTczkc9d"?>
<x:xmpmeta xmlns:x="adobe:ns:meta/" x:xmptk="Adobe XMP Core 5.6-c138 79.159824, 2016/09/14-01:09:01        ">
   <rdf:RDF xmlns:rdf="http://www.w3.org/1999/02/22-rdf-syntax-ns#">
      <rdf:Description rdf:about=""/>
   </rdf:RDF>
</x:xmpmeta>
                                                                                                    
                                                                                                    
                                                                                                    
                                                                                                    
                                                                                                    
                                                                                                    
                                                                                                    
                                                                                                    
                                                                                                    
                                                                                                    
                                                                                                    
                                                                                                    
                                                                                                    
                                                                                                    
                                                                                                    
                                                                                                    
                                                                                                    
                                                                                                    
                                                                                                    
                                                                                                    
                           
<?xpacket end="w"?></metadata>
<defs>
    <style>
      .cls-1 {
        fill: #fff;
        fill-rule: evenodd;
      }
    </style>
  </defs>
  <path id="Rectangle_1_copy" data-name="Rectangle 1 copy" class="cls-1" d="M916.455,8313.51h5.659a6.575,6.575,0,0,1-1.745,3.34,7.042,7.042,0,0,1-5.564,2.31,7.339,7.339,0,0,1-5.377-2.12,7.169,7.169,0,0,1-2.075-5.37,7.365,7.365,0,0,1,2.123-5.38,7.192,7.192,0,0,1,5.329-2.12,7.084,7.084,0,0,1,6.13,3.02l0.283,0.42,1.6-1.23-0.283-.42a9.426,9.426,0,1,0-.755,12.31,8.918,8.918,0,0,0,2.453-6.37v-0.52h-7.876v2.13h0.094Zm19.666-11.28a9.141,9.141,0,0,0-6.791,2.69,10.178,10.178,0,0,0,0,13.68A9.655,9.655,0,1,0,936.121,8302.23Zm5.376,14.86a7.349,7.349,0,0,1-5.376,2.07,7.188,7.188,0,0,1-5.376-2.12,8,8,0,0,1,0-10.75,7.817,7.817,0,0,1,10.705,0,7.356,7.356,0,0,1,2.075,5.38A7.114,7.114,0,0,1,941.5,8317.09Zm20.656-.47-12.969-15.05v19.62h1.981V8307l12.969,14.9v-19.71h-1.981v14.43Zm79.7-14.43v14.43l-12.92-15.05v19.62h1.98V8307l12.97,14.9v-19.71h-2.03Zm-56.306,2.02h3.82v16.98h1.981v-16.98h3.82v-1.98h-9.621v1.98Zm30.556-1.98a9.154,9.154,0,0,0-6.79,2.69,10.181,10.181,0,0,0,0,13.68,9.233,9.233,0,0,0,6.79,2.64,9.123,9.123,0,0,0,6.79-2.69,10.14,10.14,0,0,0,0-13.67A9.055,9.055,0,0,0,1016.1,8302.23Zm5.38,14.91a7.384,7.384,0,0,1-5.38,2.07,7.217,7.217,0,0,1-5.37-2.12,7.985,7.985,0,0,1,0-10.75,7.784,7.784,0,0,1,10.7,0,7.344,7.344,0,0,1,2.08,5.37A7.252,7.252,0,0,1,1021.48,8317.14ZM894.2,8302.23l-6.461,14.67-6.414-14.67h-2.216l8.63,19.67,8.63-19.67H894.2Zm73.428,18.96h2.216l6.414-14.66,6.461,14.66h2.169l-8.63-19.66Zm28.295,0h2.17l8.161-18.96h-2.22Zm-101.487,0h2.216l8.159-18.96H902.59Z" transform="translate(-879.094 -8301.53)"/>
</svg>
