<svg xmlns="http://www.w3.org/2000/svg" width="165.497" height="20.469" viewBox="0 0 165.497 20.469">
  <metadata><?xpacket begin="﻿" id="W5M0MpCehiHzreSzNTczkc9d"?>
<x:xmpmeta xmlns:x="adobe:ns:meta/" x:xmptk="Adobe XMP Core 5.6-c138 79.159824, 2016/09/14-01:09:01        ">
   <rdf:RDF xmlns:rdf="http://www.w3.org/1999/02/22-rdf-syntax-ns#">
      <rdf:Description rdf:about=""/>
   </rdf:RDF>
</x:xmpmeta>
                                                                                                    
                                                                                                    
                                                                                                    
                                                                                                    
                                                                                                    
                                                                                                    
                                                                                                    
                                                                                                    
                                                                                                    
                                                                                                    
                                                                                                    
                                                                                                    
                                                                                                    
                                                                                                    
                                                                                                    
                                                                                                    
                                                                                                    
                                                                                                    
                                                                                                    
                                                                                                    
                           
<?xpacket end="w"?></metadata>
<defs>
    <style>
      .cls-1 {
        fill: #76898f;
        fill-rule: evenodd;
      }
    </style>
  </defs>
  <path id="Rectangle_1_copy_2" data-name="Rectangle 1 copy 2" class="cls-1" d="M915.823,102.558h5.684a6.619,6.619,0,0,1-1.752,3.364,7.093,7.093,0,0,1-5.59,2.322,7.394,7.394,0,0,1-5.4-2.133,7.209,7.209,0,0,1-2.084-5.4,7.389,7.389,0,0,1,2.131-5.4,7.208,7.208,0,0,1,5.353-2.132,7.119,7.119,0,0,1,6.158,3.032l0.284,0.427,1.611-1.232-0.284-.426a9.467,9.467,0,1,0-.758,12.362,8.94,8.94,0,0,0,2.463-6.394v-0.521h-7.911v2.131h0.1Zm19.753-11.321a9.17,9.17,0,0,0-6.821,2.7,10.217,10.217,0,0,0,0,13.736,10.027,10.027,0,0,0,13.642-.047,10.218,10.218,0,0,0,0-13.737A9.212,9.212,0,0,0,935.576,91.237Zm5.4,14.922a7.4,7.4,0,0,1-5.4,2.085,7.245,7.245,0,0,1-5.4-2.133,8.037,8.037,0,0,1,0-10.8,7.844,7.844,0,0,1,10.753,0,7.4,7.4,0,0,1,2.084,5.4A7.148,7.148,0,0,1,940.976,106.159Zm20.748-.474L948.7,90.574V110.28h1.99V96.021l13.026,14.969V91.19h-1.989v14.5Zm80.056-14.5v14.5L1028.8,90.574V110.28h1.99V96.021l13.02,14.969V91.19h-2.03Zm-56.561,2.037h3.837V110.28h1.989V93.227h3.837v-1.99h-9.663v1.99Zm30.691-1.99a9.191,9.191,0,0,0-6.82,2.7,10.225,10.225,0,0,0,0,13.736,10.037,10.037,0,0,0,13.65-.047,10.226,10.226,0,0,0,0-13.737A9.166,9.166,0,0,0,1015.91,91.237Zm5.4,14.968a7.386,7.386,0,0,1-5.4,2.086,7.272,7.272,0,0,1-5.4-2.132,8.05,8.05,0,0,1,0-10.8,7.853,7.853,0,0,1,10.76,0,7.4,7.4,0,0,1,2.08,5.4A7.251,7.251,0,0,1,1021.31,106.205ZM893.465,91.237l-6.49,14.733-6.442-14.733h-2.226l8.668,19.753,8.669-19.753h-2.179Zm73.754,19.043h2.226l6.442-14.732,6.49,14.732h2.179l-8.669-19.754Zm28.421,0h2.179l8.191-19.043h-2.22Zm-101.938,0h2.226l8.2-19.043H901.9Z" transform="translate(-878.313 -90.531)"/>
</svg>
