<svg xmlns="http://www.w3.org/2000/svg" width="20.03" height="14.969" viewBox="0 0 20.03 14.969">
  <metadata><?xpacket begin="﻿" id="W5M0MpCehiHzreSzNTczkc9d"?>
<x:xmpmeta xmlns:x="adobe:ns:meta/" x:xmptk="Adobe XMP Core 5.6-c138 79.159824, 2016/09/14-01:09:01        ">
   <rdf:RDF xmlns:rdf="http://www.w3.org/1999/02/22-rdf-syntax-ns#">
      <rdf:Description rdf:about=""/>
   </rdf:RDF>
</x:xmpmeta>
                                                                                                    
                                                                                                    
                                                                                                    
                                                                                                    
                                                                                                    
                                                                                                    
                                                                                                    
                                                                                                    
                                                                                                    
                                                                                                    
                                                                                                    
                                                                                                    
                                                                                                    
                                                                                                    
                                                                                                    
                                                                                                    
                                                                                                    
                                                                                                    
                                                                                                    
                                                                                                    
                           
<?xpacket end="w"?></metadata>
<defs>
    <style>
      .cls-1 {
        fill: none;
        stroke: #acb8be;
        stroke-width: 1px;
        fill-rule: evenodd;
      }
    </style>
  </defs>
  <path id="Rectangle_21_copy" data-name="Rectangle 21 copy" class="cls-1" d="M1405.25,861.107a1.93,1.93,0,0,1-.84.179,1.378,1.378,0,0,1-.84-0.24l-8.59-4.615v10.946a0.567,0.567,0,0,0,.6.6h17.82a0.567,0.567,0,0,0,.6-0.6V856.431Zm8.15-7.1h-17.82a0.567,0.567,0,0,0-.6.6v0.09a0.631,0.631,0,0,0,.3.54l8.83,4.794a0.768,0.768,0,0,0,.6,0l8.99-4.794a0.631,0.631,0,0,0,.3-0.54V854.6A0.567,0.567,0,0,0,1413.4,854Z" transform="translate(-1394.47 -853.5)"/>
</svg>
