<svg id="Rating" xmlns="http://www.w3.org/2000/svg" width="116.5" height="20" viewBox="0 0 116.5 20">
  <metadata><?xpacket begin="﻿" id="W5M0MpCehiHzreSzNTczkc9d"?>
<x:xmpmeta xmlns:x="adobe:ns:meta/" x:xmptk="Adobe XMP Core 5.6-c138 79.159824, 2016/09/14-01:09:01        ">
   <rdf:RDF xmlns:rdf="http://www.w3.org/1999/02/22-rdf-syntax-ns#">
      <rdf:Description rdf:about=""/>
   </rdf:RDF>
</x:xmpmeta>
                                                                                                    
                                                                                                    
                                                                                                    
                                                                                                    
                                                                                                    
                                                                                                    
                                                                                                    
                                                                                                    
                                                                                                    
                                                                                                    
                                                                                                    
                                                                                                    
                                                                                                    
                                                                                                    
                                                                                                    
                                                                                                    
                                                                                                    
                                                                                                    
                                                                                                    
                                                                                                    
                           
<?xpacket end="w"?></metadata>
<defs>
    <style>
      .cls-1 {
        fill: none;
        stroke: #acb8be;
        stroke-width: 1px;
      }

      .cls-1, .cls-2 {
        fill-rule: evenodd;
      }

      .cls-2 {
        fill: #f8ce28;
      }
    </style>
  </defs>
  <path class="cls-1" d="M1079,400.77l6.18,3.73-1.64-7.03,5.46-4.73-7.19-.61L1079,385.5l-2.81,6.63-7.19.61,5.46,4.73-1.64,7.03Z" transform="translate(-973 -385)"/>
  <path id="Rectangle_22_copy_2" data-name="Rectangle 22 copy 2" class="cls-1" d="M1055,400.77l6.18,3.73-1.64-7.03,5.46-4.73-7.19-.61L1055,385.5l-2.81,6.63-7.19.61,5.46,4.73-1.64,7.03Z" transform="translate(-973 -385)"/>
  <path id="Rectangle_22_copy_3" data-name="Rectangle 22 copy 3" class="cls-2" d="M1031,400.77l6.18,3.73-1.64-7.03,5.46-4.73-7.19-.61L1031,385.5l-2.81,6.63-7.19.61,5.46,4.73-1.64,7.03Z" transform="translate(-973 -385)"/>
  <path id="Rectangle_22_copy_3-2" data-name="Rectangle 22 copy 3" class="cls-2" d="M1007,400.77l6.18,3.73-1.64-7.03,5.46-4.73-7.19-.61L1007,385.5l-2.81,6.63-7.19.61,5.46,4.73-1.64,7.03Z" transform="translate(-973 -385)"/>
  <path id="Rectangle_22_copy_4" data-name="Rectangle 22 copy 4" class="cls-2" d="M983,400.77l6.18,3.73-1.64-7.03,5.46-4.73-7.19-.61L983,385.5l-2.81,6.63-7.19.61,5.46,4.73-1.64,7.03Z" transform="translate(-973 -385)"/>
</svg>
