<svg xmlns="http://www.w3.org/2000/svg" width="16" height="11" viewBox="0 0 16 11">
  <metadata><?xpacket begin="﻿" id="W5M0MpCehiHzreSzNTczkc9d"?>
<x:xmpmeta xmlns:x="adobe:ns:meta/" x:xmptk="Adobe XMP Core 5.6-c138 79.159824, 2016/09/14-01:09:01        ">
   <rdf:RDF xmlns:rdf="http://www.w3.org/1999/02/22-rdf-syntax-ns#">
      <rdf:Description rdf:about=""/>
   </rdf:RDF>
</x:xmpmeta>
                                                                                                    
                                                                                                    
                                                                                                    
                                                                                                    
                                                                                                    
                                                                                                    
                                                                                                    
                                                                                                    
                                                                                                    
                                                                                                    
                                                                                                    
                                                                                                    
                                                                                                    
                                                                                                    
                                                                                                    
                                                                                                    
                                                                                                    
                                                                                                    
                                                                                                    
                                                                                                    
                           
<?xpacket end="w"?></metadata>
<defs>
    <style>
      .cls-1 {
        fill: #92999a;
        fill-rule: evenodd;
      }
    </style>
  </defs>
  <path class="cls-1" d="M728,14h-3V11H714v9h1.05a2.5,2.5,0,0,1,4.9,0H723a2.5,2.5,0,0,1,4.9,0H730V16l-2-2h0Zm1,4-2-1V15h1l1,1v2h0Zm-11.5,1a1.5,1.5,0,1,1-1.5,1.5A1.5,1.5,0,0,1,717.5,19Zm8,0a1.5,1.5,0,1,1-1.5,1.5A1.5,1.5,0,0,1,725.5,19Z" transform="translate(-714 -11)"/>
</svg>
