<svg xmlns="http://www.w3.org/2000/svg" xmlns:xlink="http://www.w3.org/1999/xlink" version="1.1" id="Layer_1" x="0px" y="0px" viewBox="0 0 1438 898" style="enable-background:new 0 0 1438 898;" xml:space="preserve" width="1438" height="898"><style type="text/css">	.st0{clip-path:url(#SVGID_2_);}	.st1{fill:#F4F6F8;}	.st2{fill:#EFF2F5;}	.st3{opacity:0.5;}	.st4{fill:#FDFDFD;}	.st5{fill:#F9FAFB;}	.st6{fill:#E4E9EE;}	.st7{fill:#E0E6EC;}</style><title>Login_Pattern_V1_2</title><g><defs><rect id="SVGID_1_" width="1438" height="898"/></defs><clipPath id="SVGID_2_"><use xlink:href="#SVGID_1_" style="overflow:visible;"/></clipPath><g class="st0"><g id="BG"><rect x="1" y="1.6" class="st1" width="1432.3" height="895.7"/></g><path class="st2" d="M1578.5,258.8v447.1l-430.6,695V256.4C1203.1,257,1407.7,258.4,1578.5,258.8z"/><g class="st3"><rect x="289.3" y="3.3" class="st4" width="429.2" height="407.3"/><rect x="720.1" y="3.3" class="st2" width="427.6" height="109.2"/><polygon class="st4" points="1571.6,1815.9 1150.3,1815.9 1147.9,3.3 1571.6,3.3    "/><rect x="720.1" y="112.1" class="st5" width="427.6" height="222"/><rect x="720.1" y="333.5" class="st6" width="427.6" height="81"/><rect x="-102.8" y="692.5" class="st4" width="666.4" height="100.7"/><rect x="-102.8" y="793.2" class="st2" width="666.4" height="120.7"/><g class="st3"><rect x="281.8" y="692.5" class="st7" width="281.9" height="221.4"/></g><polyline class="st1" points="-30.3,694.3 151.3,694.3 -22.2,922.2    "/><rect x="561.4" y="415.5" class="st6" width="469.4" height="502.5"/><polygon class="st4" points="283.4,411.9 -30.3,692.7 -30.3,416.9    "/><polygon class="st6" points="-33,692.7 281,411.9 563.7,413.3 563.7,687.6    "/><polygon class="st6" points="104.8,148.6 -324.4,148.6 -324.4,3.3 -142.7,3.3    "/><polygon class="st4" points="-144,3.3 285.2,3.3 285.2,236.3 237.6,236.3    "/><path class="st6" d="M520,2.1c0,127.9-103.7,231.5-231.5,231.5V2.1H520z"/><path class="st2" d="M1147.9-0.1c234.4,0,414.4,187.3,414.4,418.2h-414.4V-0.1z"/><path class="st2" d="M564.5,411c-0.4-163.6-133.3-295.9-296.9-295.5S-28.1,249.1-27.7,412.7L564.5,411z"/><path class="st6" d="M444.3,173.6c-42.6,38.8-98.2,60.3-155.9,60.3V116.4C344.8,120.1,398.9,140,444.3,173.6z"/><path class="st4" d="M444.3,173.6c-42.6,38.8-98.2,60.3-155.9,60.3V116.4C344.8,120.1,398.9,140,444.3,173.6z"/><polygon class="st4" points="288.5,116.4 288.5,416.9 -144,3.3 288.5,3.3    "/><path class="st2" d="M288.5,116.4v295.5h-5.3L61.6,200c55-53.9,129-84.1,206-84.2C274.7,115.8,281.6,116,288.5,116.4z"/><path class="st7" d="M288.5,116.4v300.5l-5.3-5.1L61.6,200c55-53.9,129-84.1,206-84.2C274.7,115.8,281.6,116,288.5,116.4z"/><path class="st2" d="M563.7,413.3c138.4,0,261.8,112.2,261.8,250.6S702.1,914.5,563.7,914.5V413.3z"/><path class="st2" d="M563.7,425.5c138.4,0,261.8,112.2,261.8,250.6S702.1,926.7,563.7,926.7V425.5z"/><path class="st5" d="M1840.1,262.3l-692.2,1134.8V261.5C1147.9,261.5,1840.1,267,1840.1,262.3z"/><path class="st2" d="M1562.3,418.1h-414.4V261.7c24.3,0.2,208,1.6,385.6,2.2C1552.6,313.1,1562.4,365.4,1562.3,418.1z"/><path class="st4" d="M1562.3,418.1h-414.4V261.7l0,0c24.3,0.2,208,1.6,385.6,2.2C1552.6,313.1,1562.4,365.4,1562.3,418.1z"/><path class="st2" d="M1546.2,425c0,223.2-175.1,404-398.3,404V425H1546.2z"/><path class="st4" d="M1418.4,719.9L1147.9,425l0,0v404C1254.6,829.1,1346.2,787.7,1418.4,719.9z"/></g></g></g></svg>