<svg xmlns="http://www.w3.org/2000/svg" viewBox="0 0 590 370"><circle cx="161.588" cy="38.846" r="5.655" fill="#DFE4E8"/><path fill="#DFE4E8" d="M161.59 44.5h-.003m29.028-3.002"/><circle cx="190.614" cy="38.846" r="2.652" fill="#DFE4E8"/><circle cx="220.641" cy="38.846" r="2.102" fill="#DFE4E8"/><path fill="#DFE4E8" d="M132.564 73.727h.002a5.85 5.85 0 0 0 5.85-5.857 5.854 5.854 0 1 0-11.708.005 5.852 5.852 0 0 0 5.856 5.852z"/><circle cx="161.588" cy="67.872" r="2.853" fill="#DFE4E8"/><circle cx="190.614" cy="67.872" r="1.802" fill="#DFE4E8"/><path fill="#DFE4E8" d="M220.64 72.426h.005a4.55 4.55 0 0 0 4.55-4.556 4.554 4.554 0 1 0-4.555 4.556zM43.48 98.91a2.011 2.011 0 1 0 .002-4.022 2.011 2.011 0 0 0-.001 4.022zm31.03 1.23a1.24 1.24 0 0 0 1.24-1.24v-.003a1.242 1.242 0 1 0-1.241 1.245zm.002 0h-.002m28.025-1.49a1.75 1.75 0 0 0 1.75-1.75v-.003a1.75 1.75 0 1 0-1.75 1.753zm31.778-1.75v-.003a1.751 1.751 0 1 0 0 .002zm29.127 0a1.852 1.852 0 1 0-3.703-.001 1.852 1.852 0 0 0 3.703 0zm-1.85 1.85h-.002m28.075-1.85a.95.95 0 0 0 1.902 0v-.002a.95.95 0 0 0-1.902 0zm30.977 2.75h.003c1.52 0 2.75-1.23 2.75-2.75a2.751 2.751 0 1 0-2.753 2.751z"/><circle cx="43.481" cy="126.926" r="2.322" fill="#DFE4E8"/><path fill="#DFE4E8" d="M73.51 130.78a3.854 3.854 0 1 0-.004-7.706 3.854 3.854 0 0 0 .004 7.705zm29.025-2.003a1.85 1.85 0 0 0 1.85-1.853 1.85 1.85 0 1 0-1.85 1.852zm27.025-1.85a2.999 2.999 0 0 0 3.003 3 3.002 3.002 0 1 0-3.002-3zm32.026-5.507a5.506 5.506 0 0 0 .004 11.01h-.003.003a5.505 5.505 0 1 0-.004-11.009z"/><circle cx="190.614" cy="126.926" r="2.803" fill="#DFE4E8"/><path fill="#DFE4E8" d="M220.64 130.478h.004a3.554 3.554 0 1 0 0-7.104 3.554 3.554 0 0 0-.004 7.104zm30.027-118.116h.005a3.54 3.54 0 0 0 3.54-3.54 3.542 3.542 0 1 0-7.086-.007 3.543 3.543 0 0 0 3.54 3.547zM279.695 10h.004a1.18 1.18 0 1 0-.006 0zm29.025-6.586a5.404 5.404 0 0 0-5.404 5.407 5.402 5.402 0 0 0 5.406 5.403 5.403 5.403 0 0 0 5.403-5.402v-.003a5.402 5.402 0 0 0-5.406-5.403zm30.03 6.306a.9.9 0 1 0-.002 0zm29.025.1a1 1 0 0 0 1-1v-.002a1 1 0 1 0-2 0 1 1 0 0 0 1 1.002zm30.028.95a1.95 1.95 0 0 0 1.95-1.95v-.002a1.95 1.95 0 1 0-1.949 1.952z"/><circle cx="249.668" cy="38.846" r="1.902" fill="#DFE4E8"/><circle cx="279.695" cy="38.846" r=".601" fill="#DFE4E8"/><circle cx="308.721" cy="38.846" r="4.204" fill="#DFE4E8"/><path fill="#DFE4E8" d="M308.723 43.05h-.002m30.025-9.86a5.658 5.658 0 0 0-5.653 5.66 5.651 5.651 0 0 0 5.656 5.65 5.654 5.654 0 1 0-.004-11.309zm29.029 8.308a2.652 2.652 0 1 0 0-5.303 2.652 2.652 0 0 0 0 5.302z"/><circle cx="396.801" cy="38.846" r="3.303" fill="#DFE4E8"/><circle cx="426.828" cy="38.846" r="4.604" fill="#DFE4E8"/><path fill="#DFE4E8" d="M426.83 43.45h-.002"/><circle cx="455.854" cy="38.846" r="1.752" fill="#DFE4E8"/><path fill="#DFE4E8" d="M249.67 73.627h.002a5.75 5.75 0 0 0 5.75-5.758 5.754 5.754 0 0 0-5.756-5.754 5.757 5.757 0 0 0 .004 11.511z"/><circle cx="279.695" cy="67.873" r=".701" fill="#DFE4E8"/><path fill="#DFE4E8" d="M309.725 63.268a3.604 3.604 0 0 0-.006 7.206h-.002.01a3.6 3.6 0 0 0 3.598-3.605c0-1.99-1.613-3.6-3.6-3.602zm32.025 4.602a3.002 3.002 0 1 0-6.003.001 3.002 3.002 0 0 0 6.003 0zm26.027 5.507h.002a5.502 5.502 0 0 0 5.5-5.507 5.505 5.505 0 1 0-5.503 5.507zm29.025-2.102a3.402 3.402 0 1 0-3.404-3.401 3.402 3.402 0 0 0 3.404 3.402zm30.025-7.305a3.903 3.903 0 1 0 .003 7.805 3.903 3.903 0 0 0-.004-7.804z"/><circle cx="455.855" cy="67.872" r="1.851" fill="#DFE4E8"/><path fill="#DFE4E8" d="M252.47 96.9v-.004a2.802 2.802 0 1 0-5.604-.004 2.802 2.802 0 0 0 5.603.008zm27.226 3.652a3.652 3.652 0 0 0 3.652-3.652v-.003a3.653 3.653 0 1 0-3.651 3.654zm29.027-.502c1.74 0 3.152-1.41 3.152-3.15v-.003a3.152 3.152 0 1 0-3.151 3.152zm30.027-1.9c.69 0 1.25-.56 1.25-1.25v-.002a1.25 1.25 0 1 0-1.252 1.252zm28.474-1.25a.551.551 0 0 0 1.1 0v-.002a.55.55 0 0 0-1.1 0zm30.678-.002a1.1 1.1 0 1 0-2.2 0 1.1 1.1 0 0 0 2.2 0zm28.924-5.805a5.806 5.806 0 1 0 5.807 5.809v-.004c0-3.206-2.6-5.804-5.807-5.803zm29.03 9.409a3.603 3.603 0 0 0 3.602-3.602v-.003a3.605 3.605 0 1 0-3.601 3.605zm-206.19 20.868a5.556 5.556 0 0 0-5.553 5.558 5.553 5.553 0 0 0 5.557 5.552h.002a5.552 5.552 0 0 0 5.55-5.556c0-3.07-2.49-5.554-5.556-5.553zm30.031 10.11h.002a4.555 4.555 0 0 0-.006-9.109 4.555 4.555 0 0 0 .003 9.109zm29.026-1.25a3.303 3.303 0 1 0-.002-6.607 3.3 3.3 0 0 0-3.3 3.304 3.302 3.302 0 0 0 3.303 3.302zm30.027-1.553a1.751 1.751 0 1 0 0-3.502 1.751 1.751 0 0 0-.001 3.502zm29.022-7.607a5.857 5.857 0 0 0-5.853 5.858 5.854 5.854 0 0 0 5.857 5.852h-.002.003a5.852 5.852 0 0 0 5.85-5.857 5.852 5.852 0 0 0-5.856-5.852z"/><circle cx="396.801" cy="126.926" r="1.001" fill="#DFE4E8"/><path fill="#DFE4E8" d="M426.83 130.63a3.704 3.704 0 1 0-.003-7.403 3.704 3.704 0 0 0 .003 7.401z"/><circle cx="455.855" cy="126.926" r=".951" fill="#DFE4E8"/><path fill="#DFE4E8" d="M574.963 10.02a1.2 1.2 0 1 0 0-2.4 1.2 1.2 0 0 0 0 2.4z"/><circle cx="486.882" cy="38.845" r="3.553" fill="#DFE4E8"/><circle cx="515.909" cy="38.846" r="5.154" fill="#DFE4E8"/><circle cx="545.936" cy="38.846" r="1.551" fill="#DFE4E8"/><circle cx="574.962" cy="38.846" r="3.853" fill="#DFE4E8"/><path fill="#DFE4E8" d="M486.882 69.023h.002a1.15 1.15 0 1 0-.002 0zm25.874-1.15a3.153 3.153 0 0 0 6.306-.002 3.152 3.152 0 0 0-6.306.003zm33.181 2.552a2.553 2.553 0 1 0 0-5.107 2.553 2.553 0 0 0-.001 5.107zm29.026-.551a2.002 2.002 0 1 0-.003-4.005 2.002 2.002 0 0 0 .004 4.005zM486.882 98.4a1.501 1.501 0 1 0 0-3.002 1.501 1.501 0 0 0 .001 3.002zm27.625-1.5a1.401 1.401 0 0 0 2.802 0v-.002a1.402 1.402 0 0 0-2.802.002zm31.426-6.007a6.004 6.004 0 0 0-6.003 6.008 6.004 6.004 0 0 0 6.008 6.004 6.003 6.003 0 0 0 6.003-6.003v-.004a6.004 6.004 0 0 0-6.007-6.003zm29.03 8.657a2.649 2.649 0 0 0 2.65-2.65v-.002a2.652 2.652 0 1 0-2.649 2.652zm-88.081 29.077h.002a1.7 1.7 0 1 0-.002 0zm29.028 2.753h.003a4.453 4.453 0 0 0 4.45-4.456 4.454 4.454 0 1 0-4.452 4.455zm33.68-4.456a3.654 3.654 0 0 0-7.308.002 3.654 3.654 0 0 0 7.307-.002zm27.875.001a2.5 2.5 0 0 0-2.503-2.5 2.499 2.499 0 0 0-2.5 2.502 2.5 2.5 0 0 0 2.502 2.5 2.499 2.499 0 0 0 2.5-2.502zM43.48 158.655h.003a2.702 2.702 0 1 0 .004-5.406 2.702 2.702 0 0 0-.008 5.406zm30.026-7.507a4.803 4.803 0 0 0 .005 9.606v.003h.002a4.801 4.801 0 0 0 4.8-4.805v-.003a4.802 4.802 0 0 0-4.806-4.802zm148.137 3.002a1.802 1.802 0 0 0 0 3.604h.003a1.8 1.8 0 1 0-.002-3.604zM14.452 180.524a5.454 5.454 0 1 0 .005 10.909v.002h.002a5.451 5.451 0 0 0 5.45-5.454v-.003a5.456 5.456 0 0 0-5.458-5.453zm29.031 8.456a2.997 2.997 0 0 0 3-3v-.003a3 3 0 0 0-3.003-3 2.999 2.999 0 0 0-3 3.003 3 3 0 0 0 3.003 3zm30.777-3a.751.751 0 1 0-1.498-.002.751.751 0 0 0 1.496.002zm60.604 0v-.003a2.302 2.302 0 1 0-4.602 0 2.302 2.302 0 0 0 4.601.002zm29.826-1.002v-.003a2.101 2.101 0 1 0-2.099 2.105 2.099 2.099 0 0 0 2.1-2.102zm25.922-5.004a6.005 6.005 0 1 0 .005 12.01v.002a6.004 6.004 0 0 0 6.002-6.007v-.003a6.005 6.005 0 0 0-6.008-6zm30.028 9.156l.004.002c1.74 0 3.15-1.412 3.15-3.154a3.153 3.153 0 1 0-3.153 3.153zM43.482 216.306a1.3 1.3 0 1 0-1.302-1.302c0 .72.582 1.3 1.302 1.302zm27.875-1.299a2.151 2.151 0 1 0 4.3-.002 2.151 2.151 0 0 0-4.299.002zm31.18 5.351v.002c2.958 0 5.353-2.4 5.352-5.355v-.003a5.356 5.356 0 0 0-10.71.005 5.352 5.352 0 0 0 5.357 5.35zm28.573-5.352a1.45 1.45 0 1 0 2.9 0 1.45 1.45 0 0 0-2.9 0zm30.475-4.806a4.805 4.805 0 0 0 .005 9.607v.003a4.803 4.803 0 0 0 4.802-4.805v-.003a4.802 4.802 0 0 0-4.807-4.8zm30.08 4.806a1.05 1.05 0 1 0-1.05 1.05c.58 0 1.05-.47 1.05-1.05z"/><circle cx="220.641" cy="215.005" r=".701" fill="#DFE4E8"/><path fill="#DFE4E8" d="M73.507 243.18a1.85 1.85 0 1 0 1.852 1.853v-.002c0-1.02-.83-1.85-1.853-1.85zm26.175 1.854a2.85 2.85 0 0 0 2.854 2.85 2.849 2.849 0 0 0 2.85-2.852 2.852 2.852 0 1 0-5.704.001zm27.725.001a5.155 5.155 0 0 0 10.31-.002v-.003a5.155 5.155 0 0 0-10.311.005zm34.179-4.557a4.555 4.555 0 0 0-4.552 4.557 4.551 4.551 0 0 0 4.556 4.55 4.55 4.55 0 0 0 4.55-4.553v-.002a4.552 4.552 0 0 0-4.554-4.552zm25.774 4.556a3.253 3.253 0 0 0 6.506-.002v-.002a3.251 3.251 0 1 0-6.504.004zm34.533-.001a1.25 1.25 0 1 0-1.253 1.252h.002a1.253 1.253 0 0 0 1.25-1.252zM14.456 276.32a2.26 2.26 0 0 0 2.26-2.26 2.261 2.261 0 1 0-2.261 2.26v.002zm88.076-8.216a5.953 5.953 0 0 0-5.952 5.957c0 3.29 2.67 5.955 5.958 5.953v.002h.002a5.952 5.952 0 0 0 5.95-5.956v-.004a5.955 5.955 0 0 0-5.958-5.952zm30.028-.05a6.005 6.005 0 1 0 .006 12.01l-.002.002h.002a6.002 6.002 0 0 0 6-6.006v-.004a6.003 6.003 0 0 0-6.007-6.002zm29.027 2.952a3.053 3.053 0 1 0 .002 6.104v.002a3.052 3.052 0 0 0 3.05-3.052v-.003a3.05 3.05 0 0 0-3.053-3.05zm29.025-2.102c-2.847.002-5.153 2.31-5.153 5.157s2.31 5.154 5.157 5.152v.002a5.154 5.154 0 0 0 5.152-5.155v-.004a5.156 5.156 0 0 0-5.158-5.152zm29.178 5.154c0 .47.38.85.85.852h.002a.85.85 0 1 0 0-1.7.85.85 0 0 0-.852.848zM10.9 303.084a2.553 2.553 0 0 0 2.553 2.553h.003a2.553 2.553 0 1 0-2.555-2.554zm32.58-5.654a5.656 5.656 0 1 0 5.657 5.657v-.003a5.657 5.657 0 0 0-5.658-5.653zm30.027 2.052a3.603 3.603 0 1 0 .002 7.208 3.603 3.603 0 0 0-.002-7.209zm29.026-1.102a4.705 4.705 0 0 0 .005 9.409 4.706 4.706 0 0 0 4.702-4.705v-.003a4.705 4.705 0 0 0-4.707-4.7zm30.027.45a4.252 4.252 0 0 0-4.25 4.257 4.249 4.249 0 0 0 4.254 4.25 4.248 4.248 0 0 0 4.25-4.252v-.003a4.25 4.25 0 0 0-4.254-4.25z"/><circle cx="161.588" cy="303.085" r="1.151" fill="#DFE4E8"/><path fill="#DFE4E8" d="M190.614 301.334a1.751 1.751 0 1 0 1.752 1.752 1.75 1.75 0 0 0-1.752-1.752zm31.028 4.394h.003a2.64 2.64 0 0 0 2.64-2.643 2.643 2.643 0 1 0-2.644 2.643zM12.494 332.112c0 .53.43.96.96.96h.002a.96.96 0 1 0-.962-.96z"/><circle cx="43.481" cy="332.112" r=".451" fill="#DFE4E8"/><path fill="#DFE4E8" d="M73.508 331.11a2.003 2.003 0 0 0 .002 4.003 2 2 0 0 0 2-2v-.002c0-1.105-.897-2-2.002-2zm29.022-2.032a3.033 3.033 0 1 0 3.038 3.033v-.002a3.034 3.034 0 0 0-3.037-3.03zm30.03 2.082a1.952 1.952 0 1 0 .002 0zm88.083-2.902a4.854 4.854 0 1 0-.004 9.709h.003a4.854 4.854 0 0 0 0-9.709zm-206.19 28.526a5.355 5.355 0 1 0 5.358 5.356v-.003a5.355 5.355 0 0 0-5.357-5.353zm29.027-.101a5.454 5.454 0 1 0 .004 10.91 5.452 5.452 0 0 0 5.452-5.453v-.003a5.455 5.455 0 0 0-5.457-5.454zM252.77 155.95a3.1 3.1 0 0 0-3.103-3.1 3.099 3.099 0 0 0-3.1 3.103 3.1 3.1 0 0 0 3.103 3.1v.002a3.1 3.1 0 0 0 3.1-3.103v-.002zm26.928 4.705v.002a4.704 4.704 0 0 0 4.702-4.705v-.003a4.704 4.704 0 1 0-4.701 4.704zm30.474-4.702v-.002a1.451 1.451 0 1 0-1.452 1.452h.002c.802 0 1.45-.65 1.45-1.45zm28.578 3.701v.002h.002a3.704 3.704 0 0 0 3.7-3.705v-.002a3.702 3.702 0 0 0-7.405.004 3.7 3.7 0 0 0 3.703 3.702zm34.18-3.706a5.154 5.154 0 0 0-5.16-5.15 5.152 5.152 0 0 0-5.15 5.156 5.151 5.151 0 0 0 5.157 5.15v.003h.002a5.155 5.155 0 0 0 5.15-5.155v-.004zm27.124.004v-.003a3.252 3.252 0 0 0-3.255-3.25 3.25 3.25 0 1 0 .003 6.502v.002a3.25 3.25 0 0 0 3.25-3.252zm26.776 4.953v.002h.003a4.952 4.952 0 0 0 4.95-4.955v-.003a4.954 4.954 0 1 0-4.952 4.955zm29.027-.4v.002a4.552 4.552 0 0 0 4.55-4.555v-.003a4.55 4.55 0 0 0-4.555-4.552 4.552 4.552 0 0 0-4.55 4.556 4.55 4.55 0 0 0 4.555 4.55zM249.67 188.232c1.243 0 2.25-1.01 2.25-2.252v-.002a2.251 2.251 0 1 0-2.25 2.254z"/><circle cx="279.695" cy="185.979" r=".5" fill="#DFE4E8"/><path fill="#DFE4E8" d="M307.72 185.98a1 1 0 1 0 2.002 0v-.002a1 1 0 0 0-1-1c-.554 0-1.002.45-1.002 1.002zm31.03 3.702a3.698 3.698 0 0 0 3.7-3.703v-.004a3.703 3.703 0 1 0-3.7 3.707zm29.028.851a4.55 4.55 0 0 0 4.55-4.554v-.004a4.553 4.553 0 1 0-9.107.005 4.557 4.557 0 0 0 4.557 4.552v.002z"/><circle cx="396.801" cy="185.979" r=".651" fill="#DFE4E8"/><path fill="#DFE4E8" d="M428.43 185.98a1.601 1.601 0 1 0-3.2-.001 1.601 1.601 0 0 0 3.199.001zm27.427 4.952v.002a4.954 4.954 0 0 0 4.952-4.955v-.004a4.954 4.954 0 0 0-4.958-4.95 4.953 4.953 0 0 0-4.952 4.955 4.952 4.952 0 0 0 4.957 4.952zM249.67 218.958a3.954 3.954 0 1 0-.005-7.907 3.954 3.954 0 0 0 .005 7.908zm33.88-3.954a3.856 3.856 0 0 0-3.857-3.852 3.85 3.85 0 0 0-3.85 3.855 3.85 3.85 0 0 0 3.854 3.85v.003a3.852 3.852 0 0 0 3.852-3.854v-.002zm27.674.001a2.5 2.5 0 0 0-2.503-2.5 2.5 2.5 0 1 0 .003 5.002v.002a2.505 2.505 0 0 0 2.5-2.505zM338.746 210a5.006 5.006 0 0 0-5.002 5.008 5.002 5.002 0 0 0 5.007 5v.002a5.003 5.003 0 0 0 5.003-5.005v-.003a5.001 5.001 0 0 0-5.007-5zm29.031 10.41a5.4 5.4 0 0 0 5.402-5.405v-.003a5.406 5.406 0 0 0-10.811.005 5.405 5.405 0 0 0 5.407 5.402zm29.026-1.2a4.201 4.201 0 0 0 4.2-4.204v-.003a4.2 4.2 0 0 0-4.204-4.2 4.202 4.202 0 1 0 .003 8.405v.002zm30.027 1a5.202 5.202 0 0 0 5.203-5.205v-.003a5.203 5.203 0 0 0-5.208-5.2 5.204 5.204 0 0 0 .005 10.407zm30.326-5.205a1.3 1.3 0 0 0-1.302-1.3 1.3 1.3 0 1 0 0 2.6 1.3 1.3 0 0 0 1.302-1.3zM249.67 249.687a4.652 4.652 0 0 0 4.652-4.654v-.002a4.655 4.655 0 1 0-4.652 4.657zm30.023-8.107a3.45 3.45 0 0 0-3.45 3.454 3.452 3.452 0 1 0 6.904-.002v-.002a3.452 3.452 0 0 0-3.454-3.45zm33.082 3.45a4.053 4.053 0 1 0-8.109 0 4.053 4.053 0 0 0 8.11.003v-.002zm28.875.002c0-1.604-1.3-2.903-2.903-2.902a2.901 2.901 0 1 0 .002 5.804 2.9 2.9 0 0 0 2.9-2.902zm26.123-4.754a4.754 4.754 0 1 0 .004 9.506 4.754 4.754 0 0 0-.004-9.505z"/><circle cx="396.801" cy="245.033" r="1.251" fill="#DFE4E8"/><path fill="#DFE4E8" d="M426.83 250.237a5.203 5.203 0 0 0 5.203-5.205v-.003a5.206 5.206 0 1 0-5.203 5.207z"/><circle cx="455.855" cy="245.033" r=".701" fill="#DFE4E8"/><path fill="#DFE4E8" d="M249.665 268.203a5.856 5.856 0 1 0 5.859 5.856v-.004a5.855 5.855 0 0 0-5.858-5.853zm30.032 10.66a4.801 4.801 0 0 0 4.802-4.804v-.004a4.805 4.805 0 1 0-4.802 4.808zm30.025-4.183h.003a1.62 1.62 0 1 0-.002 0zm27.625-.62a1.4 1.4 0 0 0 2.802 0v-.002a1.402 1.402 0 0 0-2.802.002zm30.425-5.506a5.506 5.506 0 0 0-5.503 5.508 5.503 5.503 0 0 0 5.507 5.502 5.504 5.504 0 0 0 5.503-5.505v-.004a5.505 5.505 0 0 0-5.508-5.502zm29.03 7.406a1.9 1.9 0 1 0-.001-3.805 1.9 1.9 0 0 0 .001 3.806zm30.024-6.004a4.104 4.104 0 1 0 4.106 4.105v-.003a4.102 4.102 0 0 0-4.106-4.1zm29.026-.902a5.006 5.006 0 0 0-5.002 5.008 5.003 5.003 0 0 0 5.007 5 5.003 5.003 0 0 0 5.002-5.003v-.004a5.007 5.007 0 0 0-5.008-5.002zM249.665 297.63a5.456 5.456 0 1 0 5.457 5.458v-.003a5.454 5.454 0 0 0-5.457-5.454zm30.027-.4a5.855 5.855 0 1 0 .006 11.71 5.854 5.854 0 0 0 5.852-5.855v-.003a5.855 5.855 0 0 0-5.858-5.852zm30.03 8.077h.003a2.22 2.22 0 0 0 0-4.442 2.22 2.22 0 1 0-.003 4.442zm117.104-7.977a5.754 5.754 0 0 0-5.753 5.758 5.754 5.754 0 0 0 5.758 5.752 5.753 5.753 0 0 0 5.754-5.755v-.003a5.758 5.758 0 0 0-5.758-5.753z"/><circle cx="455.855" cy="303.085" r="1.151" fill="#DFE4E8"/><path fill="#DFE4E8" d="M249.666 328.508a4.603 4.603 0 0 0-4.602 4.607 4.606 4.606 0 0 0 9.21-.002v-.003a4.606 4.606 0 0 0-4.607-4.602zm30.027-.401a5.005 5.005 0 0 0-5.003 5.008 5.003 5.003 0 0 0 5.007 5 5.001 5.001 0 0 0 5.002-5.003v-.003a5.005 5.005 0 0 0-5.007-5.003zm29.027-.249a5.254 5.254 0 1 0 .004 10.509c2.9 0 5.253-2.354 5.252-5.255v-.003a5.254 5.254 0 0 0-5.257-5.252zm30.027 2.152a3.102 3.102 0 1 0 3.102 3.102v-.002a3.1 3.1 0 0 0-3.103-3.1zm29.027.5a2.6 2.6 0 0 0-2.6 2.603 2.6 2.6 0 0 0 2.602 2.6 2.6 2.6 0 0 0 2.6-2.6v-.003a2.6 2.6 0 0 0-2.602-2.6zm32.761 1.6v-.002a2.734 2.734 0 1 0-.001.003zm26.843 1.003a.55.55 0 1 0-1.1 0 .55.55 0 0 0 1.1 0zm28.476-.903a.9.9 0 1 0 .9.902c0-.498-.402-.9-.9-.9zm-177.16 29.418a.51.51 0 1 0 .002 1.022.51.51 0 0 0-.002-1.022z"/><circle cx="308.721" cy="362.139" r="1.021" fill="#DFE4E8"/><path fill="#DFE4E8" d="M398.798 359.816a2.323 2.323 0 1 0 2.326 2.325v-.005a2.323 2.323 0 0 0-2.326-2.32zm29.03 1.241a1.08 1.08 0 1 0 1.082 1.083v-.003c0-.596-.485-1.08-1.082-1.08zm28.026-.37a1.45 1.45 0 1 0 1.452 1.452v-.003c0-.8-.65-1.45-1.452-1.45zm31.028-201.033v.002h.004a3.704 3.704 0 1 0-.005-.001zm29.028 1.201v.002h.003a4.904 4.904 0 0 0 4.9-4.905v-.003a4.902 4.902 0 0 0-4.907-4.9 4.901 4.901 0 0 0-4.902 4.905 4.905 4.905 0 0 0 4.907 4.9zm28.225-4.902a1.802 1.802 0 0 0 3.602 0v-.003a1.801 1.801 0 0 0-3.602.003zm31.327-.001a.5.5 0 1 0-1 0 .5.5 0 0 0 1 0zm-88.582 34.28h.005a4.248 4.248 0 0 0 4.25-4.253 4.254 4.254 0 1 0-4.254 4.252zm29.032.752a5.002 5.002 0 0 0 5-5.005v-.004a5 5 0 0 0-5.006-5 5 5 0 0 0-5.002 5.005 5.003 5.003 0 0 0 5.007 5.002v.002h.002zm30.022-10.259a5.255 5.255 0 1 0 .007 10.508l-.002.002h.002a5.25 5.25 0 0 0 5.25-5.255v-.004a5.25 5.25 0 0 0-5.256-5.25zm30.68 5.255a1.652 1.652 0 1 0-3.304 0 1.652 1.652 0 0 0 3.304 0zm-86.279 29.025a3.453 3.453 0 1 0-3.456 3.453h.004a3.449 3.449 0 0 0 3.45-3.453zm25.571-5.855a5.854 5.854 0 1 0 .006 11.709 5.853 5.853 0 0 0 5.852-5.855v-.003a5.854 5.854 0 0 0-5.858-5.852zm34.484 5.855v-.003a4.452 4.452 0 0 0-4.456-4.45 4.452 4.452 0 0 0-4.452 4.455 4.45 4.45 0 0 0 4.456 4.45v.002a4.453 4.453 0 0 0 4.452-4.455zm28.176 0v-.002a3.6 3.6 0 0 0-3.605-3.6 3.602 3.602 0 1 0 .004 7.205 3.602 3.602 0 0 0 3.602-3.603zm-93.936 30.027a2.252 2.252 0 0 0 2.25 2.253h.003a2.252 2.252 0 1 0-2.253-2.252zm31.28-1.602a1.601 1.601 0 1 0 1.6 1.603v-.002c0-.883-.718-1.6-1.6-1.6z"/><circle cx="545.936" cy="245.033" r=".601" fill="#DFE4E8"/><path fill="#DFE4E8" d="M572.46 245.034a2.502 2.502 0 0 0 5.003 0v-.002a2.5 2.5 0 1 0-5.003.002zm-85.576 23.82a5.205 5.205 0 1 0-.003 10.41h.004a5.206 5.206 0 0 0 0-10.411zm29.576 5.206a.55.55 0 1 0-.552.55c.303 0 .55-.247.55-.55zm29.474-5.056a5.055 5.055 0 0 0 .005 10.11 5.05 5.05 0 0 0 5.05-5.055v-.003a5.052 5.052 0 0 0-5.056-5.05zm29.026.05a5.005 5.005 0 1 0 5.007 5.005v-.004a5.006 5.006 0 0 0-5.007-5.002zm-88.077 31.178a2.853 2.853 0 0 0-.001 5.705h.003a2.85 2.85 0 0 0 2.85-2.853 2.854 2.854 0 0 0-2.852-2.852z"/><circle cx="515.909" cy="303.085" r="1.401" fill="#DFE4E8"/><path fill="#DFE4E8" d="M544.935 301.164a1.921 1.921 0 1 0-.002 3.843h.004a1.92 1.92 0 1 0-.002-3.842zm33.331 1.919a3.302 3.302 0 1 0-3.301 3.305 3.304 3.304 0 0 0 3.302-3.303v-.002zm-32.33 29.127a.9.9 0 1 0 .9.902.9.9 0 0 0-.9-.9zm29.024-1.95a2.85 2.85 0 0 0-2.85 2.854 2.85 2.85 0 0 0 2.853 2.85 2.849 2.849 0 0 0 2.85-2.852v-.002a2.85 2.85 0 0 0-2.852-2.85zm-59.05 31.178a.702.702 0 0 0-.002 1.402h.004a.701.701 0 0 0-.002-1.402zm29.025-.08a.781.781 0 1 0 .002 1.562.781.781 0 0 0-.002-1.562zm30.025-2.872a3.653 3.653 0 1 0 3.655 3.654v-.004a3.652 3.652 0 0 0-3.655-3.65z"/></svg>